<svg xmlns="http://www.w3.org/2000/svg" xml:space="preserve" height="50%" style="fill-rule:evenodd;clip-rule:evenodd;stroke-linejoin:round;stroke-miterlimit:2" viewBox="0 0 2160 1080"><path d="M0 0h2160v1080H0z" style="fill:#ffd200;fill-rule:nonzero"/><path d="m1680 799.1-12.8-79.4c-9.9-59.2-46.4-93.1-100.1-93.1h-65.3V799h-136V280.9h250c59.5 0 110.3 17.6 146.7 50.8 34.8 31.7 53.9 76.6 53.9 126.2 0 50.6-28 97.6-74.9 125.6l-9.3 5.5 9 6c22.9 15.3 52.4 47.1 63.1 112.4l15.4 91.6H1680v.1Zm-178.2-273.5h81.7c50.4 0 81.7-25.3 81.7-66.1 0-41.8-30.6-66.7-81.7-66.7h-81.7v132.8ZM340.4 799.9V280.1h260.5c104.9 1.7 172.8 57.4 172.8 142.1 0 47.2-29 90.1-73.8 109.2l-12.8 5.4 13.1 4.5c53.6 18.3 88.2 66.3 88.2 122.3 0 31.8-10.8 60.8-31.3 84.1-29 33.7-75.5 52.2-130.9 52.2H340.4Zm147.3-113.2h85.2c15.3 0 65.2-3.2 65.2-44.5 0-29.7-25-48.2-65.2-48.2h-85.2v92.7Zm0-195.6h69.7c20.5 0 68.2-4.7 68.2-48.2 0-32.9-22.2-49.7-65.9-49.7h-71.9v97.9h-.1Zm723.9 308.8c-18.3 0-29.9-1.7-39.2-10.6-.9-.8-1.6-1.6-2.2-2.3-1.1-1.2-2.1-2.6-3.2-4.1l-133.7-170.8-62.6-79.8v267.6H833.3V280.1h83.2v.1l3.9.3c13 1.1 21.1 4.7 27.9 12.4 1.1 1.2 2.2 2.6 3.2 4.1l208.4 265V280h137.7v519.9h-86Z" style="fill-rule:nonzero"/></svg>