<svg width="29" height="29" viewBox="0 0 29 29" fill="none" xmlns="http://www.w3.org/2000/svg">
<g id="Atoms / Assets / Icons / Podcasts">
<path id="mic" d="M14.8916 16.8333C14.0765 16.8333 13.3866 16.551 12.8219 15.9863C12.2573 15.4217 11.9749 14.7318 11.9749 13.9167V6.91667C11.9749 6.10156 12.2573 5.41167 12.8219 4.847C13.3866 4.28233 14.0765 4 14.8916 4C15.7067 4 16.3966 4.28233 16.9613 4.847C17.5259 5.41167 17.8083 6.10156 17.8083 6.91667V13.9167C17.8083 14.7318 17.5259 15.4217 16.9613 15.9863C16.3966 16.551 15.7067 16.8333 14.8916 16.8333ZM14.0166 25.2917V21.446C12.0916 21.2261 10.4923 20.4005 9.21868 18.9692C7.94507 17.5377 7.30827 15.8535 7.30827 13.9167H9.05827C9.05827 15.5306 9.62702 16.9062 10.7645 18.0437C11.902 19.1812 13.2777 19.75 14.8916 19.75C16.5055 19.75 17.8812 19.1812 19.0187 18.0437C20.1562 16.9062 20.7249 15.5306 20.7249 13.9167H22.4749C22.4749 15.8535 21.8381 17.5377 20.5645 18.9692C19.2909 20.4005 17.6916 21.2261 15.7666 21.446V25.2917H14.0166ZM14.8916 15.0833C15.2222 15.0833 15.4992 14.9715 15.7229 14.7479C15.9465 14.5243 16.0583 14.2472 16.0583 13.9167V6.91667C16.0583 6.58611 15.9465 6.30903 15.7229 6.08542C15.4992 5.86181 15.2222 5.75 14.8916 5.75C14.561 5.75 14.284 5.86181 14.0604 6.08542C13.8367 6.30903 13.7249 6.58611 13.7249 6.91667V13.9167C13.7249 14.2472 13.8367 14.5243 14.0604 14.7479C14.284 14.9715 14.561 15.0833 14.8916 15.0833Z" fill="black"/>
</g>
</svg>
