<svg width="25" height="24" viewBox="0 0 25 24" fill="none" xmlns="http://www.w3.org/2000/svg">
    <mask id="mask0_5443_3633" style="mask-type:alpha" maskUnits="userSpaceOnUse" x="0" y="0"
        width="25" height="24">
        <rect x="0.25" width="24" height="24" fill="#D9D9D9" />
    </mask>
    <g mask="url(#mask0_5443_3633)">
        <path
            d="M2.95215 21.2981V7.04731L15.5289 1.93481L15.9846 3.11931L7.2944 6.64156H21.5481V21.2981H2.95215ZM4.35115 19.8991H20.1491V12.7288H4.35115V19.8991ZM8.21365 18.5511C8.84132 18.5511 9.37273 18.3335 9.8079 17.8983C10.2431 17.4631 10.4606 16.9316 10.4606 16.3038C10.4606 15.6761 10.2431 15.1447 9.8079 14.7096C9.37273 14.2744 8.84132 14.0568 8.21365 14.0568C7.58598 14.0568 7.05448 14.2744 6.61915 14.7096C6.18398 15.1447 5.9664 15.6761 5.9664 16.3038C5.9664 16.9316 6.18398 17.4631 6.61915 17.8983C7.05448 18.3335 7.58598 18.5511 8.21365 18.5511ZM4.35115 11.3298H16.4799V9.42706H17.8789V11.3298H20.1491V8.04056H4.35115V11.3298Z"
            fill="white" />
    </g>
</svg>
